<svg xmlns="http://www.w3.org/2000/svg" width="1120" height="820" viewBox="0 0 1120 820">
<defs>
<linearGradient id="metal" x1="0" x2="0" y1="0" y2="1"><stop offset="0" stop-color="#d6d6d6"/><stop offset="0.5" stop-color="#b4b4b4"/><stop offset="1" stop-color="#d0d0d0"/></linearGradient>
<linearGradient id="buttonChrome" x1="0" x2="0" y1="0" y2="1"><stop offset="0" stop-color="#ffffff"/><stop offset="0.52" stop-color="#c8c8c8"/><stop offset="1" stop-color="#f1f1f1"/></linearGradient>
<linearGradient id="tableHeader" x1="0" x2="0" y1="0" y2="1"><stop offset="0" stop-color="#f9f9f9"/><stop offset="1" stop-color="#bdbdbd"/></linearGradient>
</defs>
<rect x="0" y="0" width="1120" height="820" rx="0" fill="url(#metal)" stroke="#a0a0a0"/>
<line x1="0" y1="3" x2="1120" y2="3" stroke="#eeeeee" opacity="0.28"/>
<line x1="0" y1="9" x2="1120" y2="9" stroke="#eeeeee" opacity="0.28"/>
<line x1="0" y1="15" x2="1120" y2="15" stroke="#eeeeee" opacity="0.28"/>
<line x1="0" y1="21" x2="1120" y2="21" stroke="#eeeeee" opacity="0.28"/>
<line x1="0" y1="27" x2="1120" y2="27" stroke="#eeeeee" opacity="0.28"/>
<line x1="0" y1="33" x2="1120" y2="33" stroke="#eeeeee" opacity="0.28"/>
<line x1="0" y1="39" x2="1120" y2="39" stroke="#eeeeee" opacity="0.28"/>
<line x1="0" y1="45" x2="1120" y2="45" stroke="#eeeeee" opacity="0.28"/>
<line x1="0" y1="51" x2="1120" y2="51" stroke="#eeeeee" opacity="0.28"/>
<line x1="0" y1="57" x2="1120" y2="57" stroke="#eeeeee" opacity="0.28"/>
<line x1="0" y1="63" x2="1120" y2="63" stroke="#eeeeee" opacity="0.28"/>
<line x1="0" y1="69" x2="1120" y2="69" stroke="#eeeeee" opacity="0.28"/>
<line x1="0" y1="75" x2="1120" y2="75" stroke="#eeeeee" opacity="0.28"/>
<line x1="0" y1="81" x2="1120" y2="81" stroke="#eeeeee" opacity="0.28"/>
<line x1="0" y1="87" x2="1120" y2="87" stroke="#eeeeee" opacity="0.28"/>
<line x1="0" y1="93" x2="1120" y2="93" stroke="#eeeeee" opacity="0.28"/>
<line x1="0" y1="99" x2="1120" y2="99" stroke="#eeeeee" opacity="0.28"/>
<line x1="0" y1="105" x2="1120" y2="105" stroke="#eeeeee" opacity="0.28"/>
<line x1="0" y1="111" x2="1120" y2="111" stroke="#eeeeee" opacity="0.28"/>
<line x1="0" y1="117" x2="1120" y2="117" stroke="#eeeeee" opacity="0.28"/>
<line x1="0" y1="123" x2="1120" y2="123" stroke="#eeeeee" opacity="0.28"/>
<line x1="0" y1="129" x2="1120" y2="129" stroke="#eeeeee" opacity="0.28"/>
<line x1="0" y1="135" x2="1120" y2="135" stroke="#eeeeee" opacity="0.28"/>
<line x1="0" y1="141" x2="1120" y2="141" stroke="#eeeeee" opacity="0.28"/>
<line x1="0" y1="147" x2="1120" y2="147" stroke="#eeeeee" opacity="0.28"/>
<line x1="0" y1="153" x2="1120" y2="153" stroke="#eeeeee" opacity="0.28"/>
<line x1="0" y1="159" x2="1120" y2="159" stroke="#eeeeee" opacity="0.28"/>
<line x1="0" y1="165" x2="1120" y2="165" stroke="#eeeeee" opacity="0.28"/>
<line x1="0" y1="171" x2="1120" y2="171" stroke="#eeeeee" opacity="0.28"/>
<line x1="0" y1="177" x2="1120" y2="177" stroke="#eeeeee" opacity="0.28"/>
<line x1="0" y1="183" x2="1120" y2="183" stroke="#eeeeee" opacity="0.28"/>
<line x1="0" y1="189" x2="1120" y2="189" stroke="#eeeeee" opacity="0.28"/>
<line x1="0" y1="195" x2="1120" y2="195" stroke="#eeeeee" opacity="0.28"/>
<line x1="0" y1="201" x2="1120" y2="201" stroke="#eeeeee" opacity="0.28"/>
<line x1="0" y1="207" x2="1120" y2="207" stroke="#eeeeee" opacity="0.28"/>
<line x1="0" y1="213" x2="1120" y2="213" stroke="#eeeeee" opacity="0.28"/>
<line x1="0" y1="219" x2="1120" y2="219" stroke="#eeeeee" opacity="0.28"/>
<line x1="0" y1="225" x2="1120" y2="225" stroke="#eeeeee" opacity="0.28"/>
<line x1="0" y1="231" x2="1120" y2="231" stroke="#eeeeee" opacity="0.28"/>
<line x1="0" y1="237" x2="1120" y2="237" stroke="#eeeeee" opacity="0.28"/>
<line x1="0" y1="243" x2="1120" y2="243" stroke="#eeeeee" opacity="0.28"/>
<line x1="0" y1="249" x2="1120" y2="249" stroke="#eeeeee" opacity="0.28"/>
<line x1="0" y1="255" x2="1120" y2="255" stroke="#eeeeee" opacity="0.28"/>
<line x1="0" y1="261" x2="1120" y2="261" stroke="#eeeeee" opacity="0.28"/>
<line x1="0" y1="267" x2="1120" y2="267" stroke="#eeeeee" opacity="0.28"/>
<line x1="0" y1="273" x2="1120" y2="273" stroke="#eeeeee" opacity="0.28"/>
<line x1="0" y1="279" x2="1120" y2="279" stroke="#eeeeee" opacity="0.28"/>
<line x1="0" y1="285" x2="1120" y2="285" stroke="#eeeeee" opacity="0.28"/>
<line x1="0" y1="291" x2="1120" y2="291" stroke="#eeeeee" opacity="0.28"/>
<line x1="0" y1="297" x2="1120" y2="297" stroke="#eeeeee" opacity="0.28"/>
<line x1="0" y1="303" x2="1120" y2="303" stroke="#eeeeee" opacity="0.28"/>
<line x1="0" y1="309" x2="1120" y2="309" stroke="#eeeeee" opacity="0.28"/>
<line x1="0" y1="315" x2="1120" y2="315" stroke="#eeeeee" opacity="0.28"/>
<line x1="0" y1="321" x2="1120" y2="321" stroke="#eeeeee" opacity="0.28"/>
<line x1="0" y1="327" x2="1120" y2="327" stroke="#eeeeee" opacity="0.28"/>
<line x1="0" y1="333" x2="1120" y2="333" stroke="#eeeeee" opacity="0.28"/>
<line x1="0" y1="339" x2="1120" y2="339" stroke="#eeeeee" opacity="0.28"/>
<line x1="0" y1="345" x2="1120" y2="345" stroke="#eeeeee" opacity="0.28"/>
<line x1="0" y1="351" x2="1120" y2="351" stroke="#eeeeee" opacity="0.28"/>
<line x1="0" y1="357" x2="1120" y2="357" stroke="#eeeeee" opacity="0.28"/>
<line x1="0" y1="363" x2="1120" y2="363" stroke="#eeeeee" opacity="0.28"/>
<line x1="0" y1="369" x2="1120" y2="369" stroke="#eeeeee" opacity="0.28"/>
<line x1="0" y1="375" x2="1120" y2="375" stroke="#eeeeee" opacity="0.28"/>
<line x1="0" y1="381" x2="1120" y2="381" stroke="#eeeeee" opacity="0.28"/>
<line x1="0" y1="387" x2="1120" y2="387" stroke="#eeeeee" opacity="0.28"/>
<line x1="0" y1="393" x2="1120" y2="393" stroke="#eeeeee" opacity="0.28"/>
<line x1="0" y1="399" x2="1120" y2="399" stroke="#eeeeee" opacity="0.28"/>
<line x1="0" y1="405" x2="1120" y2="405" stroke="#eeeeee" opacity="0.28"/>
<line x1="0" y1="411" x2="1120" y2="411" stroke="#eeeeee" opacity="0.28"/>
<line x1="0" y1="417" x2="1120" y2="417" stroke="#eeeeee" opacity="0.28"/>
<line x1="0" y1="423" x2="1120" y2="423" stroke="#eeeeee" opacity="0.28"/>
<line x1="0" y1="429" x2="1120" y2="429" stroke="#eeeeee" opacity="0.28"/>
<line x1="0" y1="435" x2="1120" y2="435" stroke="#eeeeee" opacity="0.28"/>
<line x1="0" y1="441" x2="1120" y2="441" stroke="#eeeeee" opacity="0.28"/>
<line x1="0" y1="447" x2="1120" y2="447" stroke="#eeeeee" opacity="0.28"/>
<line x1="0" y1="453" x2="1120" y2="453" stroke="#eeeeee" opacity="0.28"/>
<line x1="0" y1="459" x2="1120" y2="459" stroke="#eeeeee" opacity="0.28"/>
<line x1="0" y1="465" x2="1120" y2="465" stroke="#eeeeee" opacity="0.28"/>
<line x1="0" y1="471" x2="1120" y2="471" stroke="#eeeeee" opacity="0.28"/>
<line x1="0" y1="477" x2="1120" y2="477" stroke="#eeeeee" opacity="0.28"/>
<line x1="0" y1="483" x2="1120" y2="483" stroke="#eeeeee" opacity="0.28"/>
<line x1="0" y1="489" x2="1120" y2="489" stroke="#eeeeee" opacity="0.28"/>
<line x1="0" y1="495" x2="1120" y2="495" stroke="#eeeeee" opacity="0.28"/>
<line x1="0" y1="501" x2="1120" y2="501" stroke="#eeeeee" opacity="0.28"/>
<line x1="0" y1="507" x2="1120" y2="507" stroke="#eeeeee" opacity="0.28"/>
<line x1="0" y1="513" x2="1120" y2="513" stroke="#eeeeee" opacity="0.28"/>
<line x1="0" y1="519" x2="1120" y2="519" stroke="#eeeeee" opacity="0.28"/>
<line x1="0" y1="525" x2="1120" y2="525" stroke="#eeeeee" opacity="0.28"/>
<line x1="0" y1="531" x2="1120" y2="531" stroke="#eeeeee" opacity="0.28"/>
<line x1="0" y1="537" x2="1120" y2="537" stroke="#eeeeee" opacity="0.28"/>
<line x1="0" y1="543" x2="1120" y2="543" stroke="#eeeeee" opacity="0.28"/>
<line x1="0" y1="549" x2="1120" y2="549" stroke="#eeeeee" opacity="0.28"/>
<line x1="0" y1="555" x2="1120" y2="555" stroke="#eeeeee" opacity="0.28"/>
<line x1="0" y1="561" x2="1120" y2="561" stroke="#eeeeee" opacity="0.28"/>
<line x1="0" y1="567" x2="1120" y2="567" stroke="#eeeeee" opacity="0.28"/>
<line x1="0" y1="573" x2="1120" y2="573" stroke="#eeeeee" opacity="0.28"/>
<line x1="0" y1="579" x2="1120" y2="579" stroke="#eeeeee" opacity="0.28"/>
<line x1="0" y1="585" x2="1120" y2="585" stroke="#eeeeee" opacity="0.28"/>
<line x1="0" y1="591" x2="1120" y2="591" stroke="#eeeeee" opacity="0.28"/>
<line x1="0" y1="597" x2="1120" y2="597" stroke="#eeeeee" opacity="0.28"/>
<line x1="0" y1="603" x2="1120" y2="603" stroke="#eeeeee" opacity="0.28"/>
<line x1="0" y1="609" x2="1120" y2="609" stroke="#eeeeee" opacity="0.28"/>
<line x1="0" y1="615" x2="1120" y2="615" stroke="#eeeeee" opacity="0.28"/>
<line x1="0" y1="621" x2="1120" y2="621" stroke="#eeeeee" opacity="0.28"/>
<line x1="0" y1="627" x2="1120" y2="627" stroke="#eeeeee" opacity="0.28"/>
<line x1="0" y1="633" x2="1120" y2="633" stroke="#eeeeee" opacity="0.28"/>
<line x1="0" y1="639" x2="1120" y2="639" stroke="#eeeeee" opacity="0.28"/>
<line x1="0" y1="645" x2="1120" y2="645" stroke="#eeeeee" opacity="0.28"/>
<line x1="0" y1="651" x2="1120" y2="651" stroke="#eeeeee" opacity="0.28"/>
<line x1="0" y1="657" x2="1120" y2="657" stroke="#eeeeee" opacity="0.28"/>
<line x1="0" y1="663" x2="1120" y2="663" stroke="#eeeeee" opacity="0.28"/>
<line x1="0" y1="669" x2="1120" y2="669" stroke="#eeeeee" opacity="0.28"/>
<line x1="0" y1="675" x2="1120" y2="675" stroke="#eeeeee" opacity="0.28"/>
<line x1="0" y1="681" x2="1120" y2="681" stroke="#eeeeee" opacity="0.28"/>
<line x1="0" y1="687" x2="1120" y2="687" stroke="#eeeeee" opacity="0.28"/>
<line x1="0" y1="693" x2="1120" y2="693" stroke="#eeeeee" opacity="0.28"/>
<line x1="0" y1="699" x2="1120" y2="699" stroke="#eeeeee" opacity="0.28"/>
<line x1="0" y1="705" x2="1120" y2="705" stroke="#eeeeee" opacity="0.28"/>
<line x1="0" y1="711" x2="1120" y2="711" stroke="#eeeeee" opacity="0.28"/>
<line x1="0" y1="717" x2="1120" y2="717" stroke="#eeeeee" opacity="0.28"/>
<line x1="0" y1="723" x2="1120" y2="723" stroke="#eeeeee" opacity="0.28"/>
<line x1="0" y1="729" x2="1120" y2="729" stroke="#eeeeee" opacity="0.28"/>
<line x1="0" y1="735" x2="1120" y2="735" stroke="#eeeeee" opacity="0.28"/>
<line x1="0" y1="741" x2="1120" y2="741" stroke="#eeeeee" opacity="0.28"/>
<line x1="0" y1="747" x2="1120" y2="747" stroke="#eeeeee" opacity="0.28"/>
<line x1="0" y1="753" x2="1120" y2="753" stroke="#eeeeee" opacity="0.28"/>
<line x1="0" y1="759" x2="1120" y2="759" stroke="#eeeeee" opacity="0.28"/>
<line x1="0" y1="765" x2="1120" y2="765" stroke="#eeeeee" opacity="0.28"/>
<line x1="0" y1="771" x2="1120" y2="771" stroke="#eeeeee" opacity="0.28"/>
<line x1="0" y1="777" x2="1120" y2="777" stroke="#eeeeee" opacity="0.28"/>
<line x1="0" y1="783" x2="1120" y2="783" stroke="#eeeeee" opacity="0.28"/>
<line x1="0" y1="789" x2="1120" y2="789" stroke="#eeeeee" opacity="0.28"/>
<line x1="0" y1="795" x2="1120" y2="795" stroke="#eeeeee" opacity="0.28"/>
<line x1="0" y1="801" x2="1120" y2="801" stroke="#eeeeee" opacity="0.28"/>
<line x1="0" y1="807" x2="1120" y2="807" stroke="#eeeeee" opacity="0.28"/>
<line x1="0" y1="813" x2="1120" y2="813" stroke="#eeeeee" opacity="0.28"/>
<line x1="0" y1="819" x2="1120" y2="819" stroke="#eeeeee" opacity="0.28"/>
<text x="532" y="28" font-family="-apple-system, BlinkMacSystemFont, Helvetica, Arial, sans-serif" font-size="18" font-weight="700" fill="#111111">Music Tool</text>
<circle cx="212" cy="54" r="25" fill="#f7f7f7" stroke="#7d7d7d" stroke-width="2"/>
<circle cx="212" cy="54" r="18" fill="#d9dec0" stroke="#6e7562"/>
<path d="M198 41 A20 20 0 0 1 226 43" fill="none" stroke="#ffffff" stroke-width="2"/>
<text x="202" y="54" font-family="-apple-system, BlinkMacSystemFont, Helvetica, Arial, sans-serif" font-size="14" font-weight="700" fill="#25301f">MT</text>
<text x="198" y="68" font-family="-apple-system, BlinkMacSystemFont, Helvetica, Arial, sans-serif" font-size="7" font-weight="700" fill="#47503c">audio</text>
<circle cx="284" cy="54" r="24" fill="url(#buttonChrome)" stroke="#7f7f7f" stroke-width="2"/>
<text x="278" y="61" font-family="-apple-system, BlinkMacSystemFont, Helvetica, Arial, sans-serif" font-size="18" font-weight="700" fill="#2f2f2f">▶</text>
<circle cx="348" cy="54" r="24" fill="url(#buttonChrome)" stroke="#7f7f7f" stroke-width="2"/>
<rect x="340" y="46" width="16" height="16" rx="2" fill="#202020"/>
<rect x="338" y="40" width="444" height="56" rx="28" fill="#d9dec0" stroke="#7f8572"/>
<text x="506" y="58" font-family="-apple-system, BlinkMacSystemFont, Helvetica, Arial, sans-serif" font-size="13" font-weight="700" fill="#1b1b1b">Listo</text>
<rect x="420" y="72" width="280" height="7" rx="1" fill="#edf0d5" stroke="#4f5447"/>
<rect x="420" y="72" width="112" height="7" rx="1" fill="#2f2f2f" stroke="#2f2f2f"/>
<rect x="926" y="39" width="112" height="30" rx="15" fill="#cfe7c8" stroke="#6f9366"/>
<text x="934" y="59" font-family="-apple-system, BlinkMacSystemFont, Helvetica, Arial, sans-serif" font-size="11" font-weight="700" fill="#173317">Diagnostico</text>
<rect x="42" y="112" width="1036" height="38" rx="14" fill="#d4d4d4" stroke="#8d8d8d"/>
<text x="76" y="136" font-family="-apple-system, BlinkMacSystemFont, Helvetica, Arial, sans-serif" font-size="13" font-weight="500" fill="#444">Conversion</text>
<rect x="192" y="118" width="152" height="26" rx="12" fill="#f8f8f8" stroke="#8d8d8d"/>
<text x="216" y="136" font-family="-apple-system, BlinkMacSystemFont, Helvetica, Arial, sans-serif" font-size="13" font-weight="600" fill="#222">Editor de cancion</text>
<text x="384" y="136" font-family="-apple-system, BlinkMacSystemFont, Helvetica, Arial, sans-serif" font-size="13" font-weight="500" fill="#444">YouTube / URL</text>
<rect x="42" y="168" width="1036" height="84" rx="36" fill="#f4f4f4" stroke="#8f8f8f"/>
<line x1="60" y1="171" x2="1060" y2="171" stroke="#ffffff"/>
<text x="62" y="173" font-family="-apple-system, BlinkMacSystemFont, Helvetica, Arial, sans-serif" font-size="13" font-weight="600" fill="#2e3338">1. Cancion</text>
<rect x="62" y="196" width="140" height="30" rx="15" fill="#3667e8" stroke="#1d47af"/>
<text x="90" y="216" font-family="-apple-system, BlinkMacSystemFont, Helvetica, Arial, sans-serif" font-size="11" font-weight="700" fill="#ffffff">Cargar cancion</text>
<text x="220" y="216" font-family="-apple-system, BlinkMacSystemFont, Helvetica, Arial, sans-serif" font-size="13" font-weight="500" fill="#1f2933">song_01.flac</text>
<text x="62" y="238" font-family="-apple-system, BlinkMacSystemFont, Helvetica, Arial, sans-serif" font-size="12" font-weight="400" fill="#3b3b3b">Duracion: 4:01 | Peso: 35.4 MB | Bitrate: 911 kbps</text>
<rect x="42" y="276" width="500" height="250" rx="36" fill="#f4f4f4" stroke="#8f8f8f"/>
<line x1="60" y1="279" x2="524" y2="279" stroke="#ffffff"/>
<text x="62" y="281" font-family="-apple-system, BlinkMacSystemFont, Helvetica, Arial, sans-serif" font-size="13" font-weight="600" fill="#2e3338">2. Metadatos</text>
<text x="64" y="325" font-family="-apple-system, BlinkMacSystemFont, Helvetica, Arial, sans-serif" font-size="12" font-weight="500" fill="#1f2933">Titulo</text>
<rect x="204" y="306" width="300" height="28" rx="11" fill="#ffffff" stroke="#a1a1a1"/>
<text x="214" y="325" font-family="-apple-system, BlinkMacSystemFont, Helvetica, Arial, sans-serif" font-size="12" font-weight="400" fill="#69727d">Blue Orchid</text>
<text x="64" y="359" font-family="-apple-system, BlinkMacSystemFont, Helvetica, Arial, sans-serif" font-size="12" font-weight="500" fill="#1f2933">Artista / Grupo</text>
<rect x="204" y="340" width="300" height="28" rx="11" fill="#ffffff" stroke="#a1a1a1"/>
<text x="214" y="359" font-family="-apple-system, BlinkMacSystemFont, Helvetica, Arial, sans-serif" font-size="12" font-weight="400" fill="#69727d">The White Stripes</text>
<text x="64" y="393" font-family="-apple-system, BlinkMacSystemFont, Helvetica, Arial, sans-serif" font-size="12" font-weight="500" fill="#1f2933">Album</text>
<rect x="204" y="374" width="300" height="28" rx="11" fill="#ffffff" stroke="#a1a1a1"/>
<text x="214" y="393" font-family="-apple-system, BlinkMacSystemFont, Helvetica, Arial, sans-serif" font-size="12" font-weight="400" fill="#69727d">Get Behind Me Satan</text>
<text x="64" y="427" font-family="-apple-system, BlinkMacSystemFont, Helvetica, Arial, sans-serif" font-size="12" font-weight="500" fill="#1f2933">Ano</text>
<rect x="204" y="408" width="300" height="28" rx="11" fill="#ffffff" stroke="#a1a1a1"/>
<text x="214" y="427" font-family="-apple-system, BlinkMacSystemFont, Helvetica, Arial, sans-serif" font-size="12" font-weight="400" fill="#69727d">2005</text>
<text x="64" y="461" font-family="-apple-system, BlinkMacSystemFont, Helvetica, Arial, sans-serif" font-size="12" font-weight="500" fill="#1f2933">Genero</text>
<rect x="204" y="442" width="300" height="28" rx="11" fill="#ffffff" stroke="#a1a1a1"/>
<text x="214" y="461" font-family="-apple-system, BlinkMacSystemFont, Helvetica, Arial, sans-serif" font-size="12" font-weight="400" fill="#69727d">Alternative</text>
<text x="64" y="495" font-family="-apple-system, BlinkMacSystemFont, Helvetica, Arial, sans-serif" font-size="12" font-weight="500" fill="#1f2933">Compositor</text>
<rect x="204" y="476" width="300" height="28" rx="11" fill="#ffffff" stroke="#a1a1a1"/>
<text x="214" y="495" font-family="-apple-system, BlinkMacSystemFont, Helvetica, Arial, sans-serif" font-size="12" font-weight="400" fill="#69727d"></text>
<text x="64" y="529" font-family="-apple-system, BlinkMacSystemFont, Helvetica, Arial, sans-serif" font-size="12" font-weight="500" fill="#1f2933">Numero de pista</text>
<rect x="204" y="510" width="300" height="28" rx="11" fill="#ffffff" stroke="#a1a1a1"/>
<text x="214" y="529" font-family="-apple-system, BlinkMacSystemFont, Helvetica, Arial, sans-serif" font-size="12" font-weight="400" fill="#69727d">1</text>
<rect x="578" y="276" width="500" height="250" rx="36" fill="#f4f4f4" stroke="#8f8f8f"/>
<line x1="596" y1="279" x2="1060" y2="279" stroke="#ffffff"/>
<text x="598" y="281" font-family="-apple-system, BlinkMacSystemFont, Helvetica, Arial, sans-serif" font-size="13" font-weight="600" fill="#2e3338">3. Edicion y exportacion</text>
<text x="600" y="325" font-family="-apple-system, BlinkMacSystemFont, Helvetica, Arial, sans-serif" font-size="12" font-weight="500" fill="#1f2933">Inicio</text>
<rect x="720" y="306" width="132" height="28" rx="11" fill="#ffffff" stroke="#a1a1a1"/>
<text x="730" y="325" font-family="-apple-system, BlinkMacSystemFont, Helvetica, Arial, sans-serif" font-size="12" font-weight="400" fill="#69727d"></text>
<text x="600" y="357" font-family="-apple-system, BlinkMacSystemFont, Helvetica, Arial, sans-serif" font-size="12" font-weight="500" fill="#1f2933">Final</text>
<rect x="720" y="338" width="132" height="28" rx="11" fill="#ffffff" stroke="#a1a1a1"/>
<text x="730" y="357" font-family="-apple-system, BlinkMacSystemFont, Helvetica, Arial, sans-serif" font-size="12" font-weight="400" fill="#69727d"></text>
<text x="600" y="389" font-family="-apple-system, BlinkMacSystemFont, Helvetica, Arial, sans-serif" font-size="12" font-weight="500" fill="#1f2933">Fade in</text>
<rect x="720" y="370" width="132" height="28" rx="11" fill="#ffffff" stroke="#a1a1a1"/>
<text x="730" y="389" font-family="-apple-system, BlinkMacSystemFont, Helvetica, Arial, sans-serif" font-size="12" font-weight="400" fill="#69727d">2</text>
<text x="600" y="421" font-family="-apple-system, BlinkMacSystemFont, Helvetica, Arial, sans-serif" font-size="12" font-weight="500" fill="#1f2933">Fade out</text>
<rect x="720" y="402" width="132" height="28" rx="11" fill="#ffffff" stroke="#a1a1a1"/>
<text x="730" y="421" font-family="-apple-system, BlinkMacSystemFont, Helvetica, Arial, sans-serif" font-size="12" font-weight="400" fill="#69727d">3</text>
<text x="600" y="453" font-family="-apple-system, BlinkMacSystemFont, Helvetica, Arial, sans-serif" font-size="12" font-weight="500" fill="#1f2933">Volumen</text>
<rect x="720" y="434" width="132" height="28" rx="11" fill="#ffffff" stroke="#a1a1a1"/>
<text x="730" y="453" font-family="-apple-system, BlinkMacSystemFont, Helvetica, Arial, sans-serif" font-size="12" font-weight="400" fill="#69727d">1.0</text>
<text x="600" y="485" font-family="-apple-system, BlinkMacSystemFont, Helvetica, Arial, sans-serif" font-size="12" font-weight="500" fill="#1f2933">Formato</text>
<rect x="720" y="466" width="132" height="28" rx="11" fill="#ffffff" stroke="#a1a1a1"/>
<text x="730" y="485" font-family="-apple-system, BlinkMacSystemFont, Helvetica, Arial, sans-serif" font-size="12" font-weight="400" fill="#69727d">MP3</text>
<text x="600" y="517" font-family="-apple-system, BlinkMacSystemFont, Helvetica, Arial, sans-serif" font-size="12" font-weight="500" fill="#1f2933">Calidad</text>
<rect x="720" y="498" width="132" height="28" rx="11" fill="#ffffff" stroke="#a1a1a1"/>
<text x="730" y="517" font-family="-apple-system, BlinkMacSystemFont, Helvetica, Arial, sans-serif" font-size="12" font-weight="400" fill="#69727d">320k</text>
<rect x="886" y="306" width="160" height="30" rx="15" fill="#f2f2f2" stroke="#8f8f8f"/>
<text x="933" y="326" font-family="-apple-system, BlinkMacSystemFont, Helvetica, Arial, sans-serif" font-size="11" font-weight="700" fill="#303030">Seleccionar</text>
<rect x="886" y="344" width="150" height="30" rx="15" fill="#3667e8" stroke="#1d47af"/>
<text x="922" y="364" font-family="-apple-system, BlinkMacSystemFont, Helvetica, Arial, sans-serif" font-size="11" font-weight="700" fill="#ffffff">Generar forma</text>
<rect x="886" y="382" width="150" height="30" rx="15" fill="#d7ead2" stroke="#6f9366"/>
<text x="937" y="402" font-family="-apple-system, BlinkMacSystemFont, Helvetica, Arial, sans-serif" font-size="11" font-weight="700" fill="#173317">Exportar</text>
<rect x="42" y="538" width="1036" height="140" rx="36" fill="#f4f4f4" stroke="#8f8f8f"/>
<line x1="60" y1="541" x2="1060" y2="541" stroke="#ffffff"/>
<text x="62" y="543" font-family="-apple-system, BlinkMacSystemFont, Helvetica, Arial, sans-serif" font-size="13" font-weight="600" fill="#2e3338">Edicion visual</text>
<rect x="64" y="570" width="992" height="46" rx="18" fill="#ffffff" stroke="#a1a1a1"/>
<line x1="84" y1="596" x2="84" y2="604" stroke="#111111" stroke-width="3"/>
<line x1="93" y1="591" x2="93" y2="609" stroke="#111111" stroke-width="3"/>
<line x1="102" y1="595" x2="102" y2="605" stroke="#111111" stroke-width="3"/>
<line x1="111" y1="586" x2="111" y2="614" stroke="#111111" stroke-width="3"/>
<line x1="120" y1="590" x2="120" y2="610" stroke="#111111" stroke-width="3"/>
<line x1="129" y1="583" x2="129" y2="617" stroke="#111111" stroke-width="3"/>
<line x1="138" y1="591" x2="138" y2="609" stroke="#111111" stroke-width="3"/>
<line x1="147" y1="587" x2="147" y2="613" stroke="#111111" stroke-width="3"/>
<line x1="156" y1="594" x2="156" y2="606" stroke="#111111" stroke-width="3"/>
<line x1="165" y1="585" x2="165" y2="615" stroke="#111111" stroke-width="3"/>
<line x1="174" y1="592" x2="174" y2="608" stroke="#111111" stroke-width="3"/>
<line x1="183" y1="588" x2="183" y2="612" stroke="#111111" stroke-width="3"/>
<line x1="192" y1="582" x2="192" y2="618" stroke="#111111" stroke-width="3"/>
<line x1="201" y1="593" x2="201" y2="607" stroke="#111111" stroke-width="3"/>
<line x1="210" y1="589" x2="210" y2="611" stroke="#111111" stroke-width="3"/>
<line x1="219" y1="595" x2="219" y2="605" stroke="#111111" stroke-width="3"/>
<line x1="228" y1="587" x2="228" y2="613" stroke="#111111" stroke-width="3"/>
<line x1="237" y1="591" x2="237" y2="609" stroke="#111111" stroke-width="3"/>
<line x1="246" y1="585" x2="246" y2="615" stroke="#111111" stroke-width="3"/>
<line x1="255" y1="594" x2="255" y2="606" stroke="#111111" stroke-width="3"/>
<line x1="264" y1="596" x2="264" y2="604" stroke="#111111" stroke-width="3"/>
<line x1="273" y1="591" x2="273" y2="609" stroke="#111111" stroke-width="3"/>
<line x1="282" y1="595" x2="282" y2="605" stroke="#111111" stroke-width="3"/>
<line x1="291" y1="586" x2="291" y2="614" stroke="#111111" stroke-width="3"/>
<line x1="300" y1="590" x2="300" y2="610" stroke="#111111" stroke-width="3"/>
<line x1="309" y1="583" x2="309" y2="617" stroke="#111111" stroke-width="3"/>
<line x1="318" y1="591" x2="318" y2="609" stroke="#111111" stroke-width="3"/>
<line x1="327" y1="587" x2="327" y2="613" stroke="#111111" stroke-width="3"/>
<line x1="336" y1="594" x2="336" y2="606" stroke="#111111" stroke-width="3"/>
<line x1="345" y1="585" x2="345" y2="615" stroke="#111111" stroke-width="3"/>
<line x1="354" y1="592" x2="354" y2="608" stroke="#111111" stroke-width="3"/>
<line x1="363" y1="588" x2="363" y2="612" stroke="#111111" stroke-width="3"/>
<line x1="372" y1="582" x2="372" y2="618" stroke="#111111" stroke-width="3"/>
<line x1="381" y1="593" x2="381" y2="607" stroke="#111111" stroke-width="3"/>
<line x1="390" y1="589" x2="390" y2="611" stroke="#111111" stroke-width="3"/>
<line x1="399" y1="595" x2="399" y2="605" stroke="#111111" stroke-width="3"/>
<line x1="408" y1="587" x2="408" y2="613" stroke="#111111" stroke-width="3"/>
<line x1="417" y1="591" x2="417" y2="609" stroke="#111111" stroke-width="3"/>
<line x1="426" y1="585" x2="426" y2="615" stroke="#111111" stroke-width="3"/>
<line x1="435" y1="594" x2="435" y2="606" stroke="#111111" stroke-width="3"/>
<line x1="444" y1="596" x2="444" y2="604" stroke="#111111" stroke-width="3"/>
<line x1="453" y1="591" x2="453" y2="609" stroke="#111111" stroke-width="3"/>
<line x1="462" y1="595" x2="462" y2="605" stroke="#111111" stroke-width="3"/>
<line x1="471" y1="586" x2="471" y2="614" stroke="#111111" stroke-width="3"/>
<line x1="480" y1="590" x2="480" y2="610" stroke="#111111" stroke-width="3"/>
<line x1="489" y1="583" x2="489" y2="617" stroke="#111111" stroke-width="3"/>
<line x1="498" y1="591" x2="498" y2="609" stroke="#111111" stroke-width="3"/>
<line x1="507" y1="587" x2="507" y2="613" stroke="#111111" stroke-width="3"/>
<line x1="516" y1="594" x2="516" y2="606" stroke="#111111" stroke-width="3"/>
<line x1="525" y1="585" x2="525" y2="615" stroke="#111111" stroke-width="3"/>
<line x1="534" y1="592" x2="534" y2="608" stroke="#111111" stroke-width="3"/>
<line x1="543" y1="588" x2="543" y2="612" stroke="#111111" stroke-width="3"/>
<line x1="552" y1="582" x2="552" y2="618" stroke="#111111" stroke-width="3"/>
<line x1="561" y1="593" x2="561" y2="607" stroke="#111111" stroke-width="3"/>
<line x1="570" y1="589" x2="570" y2="611" stroke="#111111" stroke-width="3"/>
<line x1="579" y1="595" x2="579" y2="605" stroke="#111111" stroke-width="3"/>
<line x1="588" y1="587" x2="588" y2="613" stroke="#111111" stroke-width="3"/>
<line x1="597" y1="591" x2="597" y2="609" stroke="#111111" stroke-width="3"/>
<line x1="606" y1="585" x2="606" y2="615" stroke="#111111" stroke-width="3"/>
<line x1="615" y1="594" x2="615" y2="606" stroke="#111111" stroke-width="3"/>
<line x1="624" y1="596" x2="624" y2="604" stroke="#111111" stroke-width="3"/>
<line x1="633" y1="591" x2="633" y2="609" stroke="#111111" stroke-width="3"/>
<line x1="642" y1="595" x2="642" y2="605" stroke="#111111" stroke-width="3"/>
<line x1="651" y1="586" x2="651" y2="614" stroke="#111111" stroke-width="3"/>
<line x1="660" y1="590" x2="660" y2="610" stroke="#111111" stroke-width="3"/>
<line x1="669" y1="583" x2="669" y2="617" stroke="#111111" stroke-width="3"/>
<line x1="678" y1="591" x2="678" y2="609" stroke="#111111" stroke-width="3"/>
<line x1="687" y1="587" x2="687" y2="613" stroke="#111111" stroke-width="3"/>
<line x1="696" y1="594" x2="696" y2="606" stroke="#111111" stroke-width="3"/>
<line x1="705" y1="585" x2="705" y2="615" stroke="#111111" stroke-width="3"/>
<line x1="714" y1="592" x2="714" y2="608" stroke="#111111" stroke-width="3"/>
<line x1="723" y1="588" x2="723" y2="612" stroke="#111111" stroke-width="3"/>
<line x1="732" y1="582" x2="732" y2="618" stroke="#111111" stroke-width="3"/>
<line x1="741" y1="593" x2="741" y2="607" stroke="#111111" stroke-width="3"/>
<line x1="750" y1="589" x2="750" y2="611" stroke="#111111" stroke-width="3"/>
<line x1="759" y1="595" x2="759" y2="605" stroke="#111111" stroke-width="3"/>
<line x1="768" y1="587" x2="768" y2="613" stroke="#111111" stroke-width="3"/>
<line x1="777" y1="591" x2="777" y2="609" stroke="#111111" stroke-width="3"/>
<line x1="786" y1="585" x2="786" y2="615" stroke="#111111" stroke-width="3"/>
<line x1="795" y1="594" x2="795" y2="606" stroke="#111111" stroke-width="3"/>
<line x1="804" y1="596" x2="804" y2="604" stroke="#111111" stroke-width="3"/>
<line x1="813" y1="591" x2="813" y2="609" stroke="#111111" stroke-width="3"/>
<line x1="822" y1="595" x2="822" y2="605" stroke="#111111" stroke-width="3"/>
<line x1="831" y1="586" x2="831" y2="614" stroke="#111111" stroke-width="3"/>
<line x1="840" y1="590" x2="840" y2="610" stroke="#111111" stroke-width="3"/>
<line x1="849" y1="583" x2="849" y2="617" stroke="#111111" stroke-width="3"/>
<line x1="858" y1="591" x2="858" y2="609" stroke="#111111" stroke-width="3"/>
<line x1="867" y1="587" x2="867" y2="613" stroke="#111111" stroke-width="3"/>
<line x1="876" y1="594" x2="876" y2="606" stroke="#111111" stroke-width="3"/>
<line x1="885" y1="585" x2="885" y2="615" stroke="#111111" stroke-width="3"/>
<line x1="894" y1="592" x2="894" y2="608" stroke="#111111" stroke-width="3"/>
<line x1="903" y1="588" x2="903" y2="612" stroke="#111111" stroke-width="3"/>
<line x1="912" y1="582" x2="912" y2="618" stroke="#111111" stroke-width="3"/>
<line x1="921" y1="593" x2="921" y2="607" stroke="#111111" stroke-width="3"/>
<line x1="930" y1="589" x2="930" y2="611" stroke="#111111" stroke-width="3"/>
<line x1="939" y1="595" x2="939" y2="605" stroke="#111111" stroke-width="3"/>
<line x1="948" y1="587" x2="948" y2="613" stroke="#111111" stroke-width="3"/>
<line x1="957" y1="591" x2="957" y2="609" stroke="#111111" stroke-width="3"/>
<line x1="966" y1="585" x2="966" y2="615" stroke="#111111" stroke-width="3"/>
<line x1="975" y1="594" x2="975" y2="606" stroke="#111111" stroke-width="3"/>
<rect x="64" y="632" width="992" height="34" rx="18" fill="#ffffff" stroke="#a1a1a1"/>
<rect x="64" y="634" width="130" height="30" rx="12" fill="#d9d9d9" stroke="#d9d9d9"/>
<rect x="902" y="634" width="154" height="30" rx="12" fill="#d9d9d9" stroke="#d9d9d9"/>
<rect x="130" y="634" width="772" height="30" rx="12" fill="#eef5ff" stroke="#eef5ff"/>
<polygon points="130,664 240,634 240,664" fill="#c7ddff"/>
<polygon points="792,634 902,664 792,664" fill="#d9c7ff"/>
<line x1="130" y1="650" x2="902" y2="650" stroke="#202020" stroke-width="3"/>
<text x="138" y="626" font-family="-apple-system, BlinkMacSystemFont, Helvetica, Arial, sans-serif" font-size="9" font-weight="500" fill="#2f82df">inicio</text>
<text x="838" y="626" font-family="-apple-system, BlinkMacSystemFont, Helvetica, Arial, sans-serif" font-size="9" font-weight="500" fill="#64469c">fade out</text>
<rect x="42" y="694" width="1036" height="86" rx="36" fill="#f4f4f4" stroke="#8f8f8f"/>
<line x1="60" y1="697" x2="1060" y2="697" stroke="#ffffff"/>
<text x="62" y="699" font-family="-apple-system, BlinkMacSystemFont, Helvetica, Arial, sans-serif" font-size="13" font-weight="600" fill="#2e3338">Registro global</text>
<text x="58" y="732" font-family="-apple-system, BlinkMacSystemFont, Helvetica, Arial, sans-serif" font-size="12" font-weight="400" fill="#313941">Listo. Los procesos y errores apareceran aqui.</text>
<rect x="42" y="790" width="1036" height="22" rx="11" fill="#d4d4d4" stroke="#969696"/>
<text x="58" y="806" font-family="-apple-system, BlinkMacSystemFont, Helvetica, Arial, sans-serif" font-size="11" font-weight="500" fill="#222">Listo</text>
</svg>